<?xml version="1.0" encoding="UTF-8"?>
<svg width="24" height="24" viewBox="0 0 24 24" fill="none" xmlns="http://www.w3.org/2000/svg">
    <path d="M19 7H17V5H5C3.9 5 3 5.9 3 7V17H5C5 18.66 6.34 20 8 20C9.66 20 11 18.66 11 17H13C13 18.66 14.34 20 16 20C17.66 20 19 18.66 19 17H21V11L19 7ZM8 18C7.45 18 7 17.55 7 17C7 16.45 7.45 16 8 16C8.55 16 9 16.45 9 17C9 17.55 8.55 18 8 18ZM16 18C15.45 18 15 17.55 15 17C15 16.45 15.45 16 16 16C16.55 16 17 16.45 17 17C17 17.55 16.55 18 16 18ZM17 14H7V7H17V14Z" fill="currentColor"/>
</svg>